<svg width="2079" height="2079" viewBox="0 0 2079 2079" fill="none" xmlns="http://www.w3.org/2000/svg">
<path d="M1605.3 630.144L358.931 1196.37C289.242 1228.03 258.414 1310.19 290.073 1379.88C321.733 1449.56 403.891 1480.39 473.58 1448.73L1719.95 882.508C1789.64 850.849 1820.47 768.69 1788.81 699.001C1757.15 629.313 1674.99 598.484 1605.3 630.144Z" fill="#7D5B48" stroke="#50441E" stroke-width="48" stroke-linecap="square"/>
<path d="M467.235 639.061L1722.32 1185.69C1792.5 1216.25 1824.61 1297.91 1794.05 1368.09C1763.49 1438.27 1681.82 1470.38 1611.64 1439.81L356.555 893.191C286.379 862.627 254.267 780.962 284.83 710.786C315.394 640.61 397.06 608.498 467.235 639.061Z" fill="#7D5B48" stroke="#50441E" stroke-width="48" stroke-linecap="square"/>
<path d="M1039.44 3.19684e-10C902.939 -0.000106712 767.775 26.8852 641.664 79.1219C515.554 131.359 400.966 207.923 304.445 304.444C207.924 400.965 131.36 515.552 79.1228 641.662C26.886 767.773 6.70051e-05 902.938 0 1039.44C4.21884e-05 1175.94 26.886 1311.1 79.1228 1437.22C131.36 1563.33 207.924 1677.91 304.445 1774.43C400.966 1870.95 515.553 1947.52 641.664 1999.76C767.775 2051.99 902.939 2078.88 1039.44 2078.88C1315.12 2078.88 1579.5 1969.37 1774.44 1774.43C1969.37 1579.5 2078.88 1315.12 2078.88 1039.44C2078.88 763.762 1969.37 499.377 1774.44 304.445C1579.5 109.512 1315.12 8.52036e-05 1039.44 3.19684e-10V3.19684e-10ZM1039.44 594.899C1157.34 594.899 1270.41 641.734 1353.78 725.102C1437.15 808.469 1483.98 921.539 1483.98 1039.44C1483.98 1157.34 1437.15 1270.41 1353.78 1353.78C1270.41 1437.14 1157.34 1483.98 1039.44 1483.98C921.541 1483.98 808.471 1437.14 725.103 1353.78C641.736 1270.41 594.9 1157.34 594.9 1039.44C594.901 921.539 641.736 808.469 725.103 725.102C808.471 641.734 921.541 594.899 1039.44 594.899V594.899Z" fill="#E4E47E" fill-opacity="0.379661"/>
<path d="M1036.61 1268.54C1177.2 1268.54 1291.17 1154.57 1291.17 1013.98C1291.17 873.395 1177.2 759.425 1036.61 759.425C896.023 759.425 782.053 873.395 782.053 1013.98C782.053 1154.57 896.023 1268.54 1036.61 1268.54Z" fill="#E4E47E"/>
<path d="M1039.44 1482.93C1284.38 1482.93 1482.93 1284.37 1482.93 1039.44C1482.93 794.503 1284.38 595.944 1039.44 595.944C794.505 595.944 595.946 794.503 595.946 1039.44C595.946 1284.37 794.505 1482.93 1039.44 1482.93Z" fill="#E4E47E" fill-opacity="0.637288"/>
</svg>
