<svg width="1551" height="1521" viewBox="0 0 1551 1521" fill="none" xmlns="http://www.w3.org/2000/svg">
<path opacity="0.406716" d="M1087.54 1284.04C1013.61 1342.82 798.369 1215.33 813.874 1210.56C829.379 1205.78 728.225 1529.51 605.879 1515.77C485.845 1502.29 458.98 1170.93 473.321 1178.52C487.663 1186.1 202.615 1384.38 115.83 1294.09C22.5476 1197.04 250.391 899.552 255.168 915.057C259.946 930.561 -1.50753 850.639 0.00655084 749.209C1.67937 637.167 294.792 560.163 287.207 574.504C279.621 588.846 181.891 301.66 274.367 238.087C356.924 181.333 566.173 351.575 550.668 356.352C535.163 361.129 625.17 15.3684 753.395 27.4315C881.621 39.4947 905.563 395.975 891.221 388.39C876.879 380.805 1129.75 286.555 1193.39 365.013C1256.16 442.386 1114.15 667.356 1109.37 651.851C1104.6 636.346 1450.36 726.352 1438.29 854.578C1426.23 982.804 1069.75 1006.75 1077.34 992.403C1084.92 978.061 1163.68 1223.5 1087.54 1284.04V1284.04Z" fill="black"/>
<path d="M1183.71 1272.73C1109.77 1331.51 894.536 1204.02 910.041 1199.24C925.546 1194.46 824.391 1518.2 702.045 1504.45C582.011 1490.97 555.147 1159.62 569.488 1167.2C583.83 1174.79 298.782 1373.07 211.996 1282.78C118.714 1185.73 346.558 888.239 351.335 903.743C356.113 919.248 94.6595 839.325 96.1735 737.895C97.8464 625.853 390.959 548.849 383.374 563.191C375.788 577.533 278.057 290.346 370.534 226.773C453.09 170.019 662.34 340.261 646.835 345.038C631.33 349.816 721.336 4.05494 849.562 16.1181C977.788 28.1812 1001.73 384.662 987.387 377.077C973.046 369.491 1225.92 275.242 1289.56 353.699C1352.32 431.073 1210.32 656.042 1205.54 640.537C1200.76 625.033 1546.52 715.039 1534.46 843.264C1522.4 971.49 1165.92 995.432 1173.5 981.09C1181.09 966.748 1259.85 1212.19 1183.71 1272.73V1272.73Z" fill="#55B455" stroke="#33674A" stroke-width="31.6106" stroke-linejoin="bevel"/>
<path d="M612.388 638.514C661.269 638.514 700.894 598.889 700.894 550.009C700.894 501.129 661.269 461.503 612.388 461.503C563.508 461.503 523.883 501.129 523.883 550.009C523.883 598.889 563.508 638.514 612.388 638.514Z" fill="#C54444"/>
<path d="M1065.48 865.057C1114.36 865.057 1153.98 825.432 1153.98 776.552C1153.98 727.672 1114.36 688.047 1065.48 688.047C1016.6 688.047 976.97 727.672 976.97 776.552C976.97 825.432 1016.6 865.057 1065.48 865.057Z" fill="#C54444"/>
<path d="M667.708 1123.21C716.588 1123.21 756.213 1083.59 756.213 1034.71C756.213 985.826 716.588 946.201 667.708 946.201C618.828 946.201 579.202 985.826 579.202 1034.71C579.202 1083.59 618.828 1123.21 667.708 1123.21Z" fill="#C54444"/>
<path opacity="0.432836" d="M657.165 553.541C664.389 553.541 670.246 539.858 670.246 522.979C670.246 506.1 664.389 492.417 657.165 492.417C649.94 492.417 644.083 506.1 644.083 522.979C644.083 539.858 649.94 553.541 657.165 553.541Z" fill="white"/>
<path opacity="0.432836" d="M1100.87 772.723C1108.09 772.723 1113.95 759.039 1113.95 742.161C1113.95 725.282 1108.09 711.599 1100.87 711.599C1093.64 711.599 1087.79 725.282 1087.79 742.161C1087.79 759.039 1093.64 772.723 1100.87 772.723Z" fill="white"/>
<path opacity="0.432836" d="M700.866 1042.72C708.091 1042.72 713.947 1029.04 713.947 1012.16C713.947 995.282 708.091 981.599 700.866 981.599C693.642 981.599 687.785 995.282 687.785 1012.16C687.785 1029.04 693.642 1042.72 700.866 1042.72Z" fill="white"/>
</svg>
