<svg width="2705" height="615" viewBox="0 0 2705 615" fill="none" xmlns="http://www.w3.org/2000/svg">
<path d="M2190.94 0C1899.74 0.372661 1798.14 61.0147 1771.55 124.393C1771.54 124.425 1771.53 124.457 1771.51 124.489C1770.51 126.898 1769.61 129.312 1768.81 131.725C1768.78 131.82 1768.74 131.916 1768.71 132.012C1768.33 133.168 1767.98 134.322 1767.65 135.478C1767.61 135.607 1767.58 135.736 1767.54 135.865C1767.54 135.865 1767.54 135.865 1767.54 135.884C1766.89 138.171 1766.33 140.455 1765.85 142.737C1765.81 142.949 1765.77 143.16 1765.72 143.372C1765.51 144.445 1765.31 145.516 1765.13 146.587C1765.09 146.803 1765.06 147.019 1765.02 147.234C1765.02 147.234 1765.02 147.253 1765.02 147.253C1764.86 148.277 1764.7 149.3 1764.57 150.321C1764.56 150.418 1764.54 150.515 1764.53 150.612C1764.39 151.652 1764.28 152.691 1764.18 153.728C1764.15 154.038 1764.12 154.346 1764.09 154.656C1764.01 155.634 1763.93 156.611 1763.87 157.587C1763.85 157.911 1763.83 158.234 1763.82 158.558C1763.79 159.109 1763.77 159.657 1763.75 160.207C1763.71 161.25 1763.69 162.29 1763.67 163.327C1763.67 163.67 1763.67 164.013 1763.67 164.354C1763.67 165.631 1763.68 166.903 1763.73 168.17C1763.73 168.171 1763.73 168.17 1763.73 168.17C1763.73 168.247 1763.73 168.329 1763.73 168.406C1763.83 171.255 1764.03 174.079 1764.33 176.878C1764.33 176.878 1764.33 176.88 1764.33 176.878C1764.35 177.039 1764.37 177.2 1764.39 177.362C1764.52 178.594 1764.67 179.822 1764.84 181.044C1764.86 181.218 1764.89 181.393 1764.91 181.569C1765.1 182.869 1765.3 184.162 1765.53 185.448C1765.53 185.486 1765.54 185.524 1765.55 185.563C1766.69 192.152 1768.32 198.527 1770.24 204.635C1770.65 205.924 1771.06 207.199 1771.5 208.461C1771.82 209.422 1772.16 210.369 1772.5 211.314C1772.5 211.314 1772.5 211.314 1772.5 211.333C1772.88 212.382 1773.27 213.423 1773.66 214.454C1773.97 215.247 1774.27 216.036 1774.58 216.816C1774.58 216.816 1774.58 216.816 1774.58 216.816C1774.6 216.865 1774.62 216.912 1774.64 216.961C1619.21 234.382 1511.13 256.502 1396.51 294.49C1396.45 294.167 1396.39 293.881 1396.34 293.56C1395.85 290.916 1395.37 288.359 1394.89 285.889C1394.8 285.424 1394.71 284.953 1394.62 284.494C1394.09 281.816 1393.57 279.241 1393.04 276.781C1392.98 276.463 1392.91 276.159 1392.84 275.844C1392.35 273.578 1391.87 271.412 1391.38 269.343C1391.29 268.931 1391.19 268.519 1391.1 268.117C1390.58 265.955 1390.08 263.899 1389.57 261.971C1389.4 261.308 1389.23 260.672 1389.05 260.04C1388.99 259.781 1388.91 259.518 1388.84 259.266C1388.68 258.649 1388.51 258.052 1388.34 257.463C1388.26 257.208 1388.19 256.953 1388.12 256.702C1387.94 256.096 1387.77 255.504 1387.59 254.929C1387.53 254.746 1387.48 254.569 1387.42 254.387C1386.84 252.495 1386.26 250.78 1385.69 249.249C1385.64 249.114 1385.59 248.973 1385.54 248.843C1385.38 248.41 1385.22 248.005 1385.06 247.604C1384.99 247.427 1384.91 247.247 1384.84 247.075C1384.68 246.685 1384.52 246.309 1384.36 245.95C1384.23 245.656 1384.1 245.366 1383.97 245.094C1383.87 244.885 1383.77 244.684 1383.68 244.489C1383.53 244.201 1383.39 243.933 1383.25 243.673C1383.19 243.563 1383.12 243.432 1383.06 243.327C1383.01 243.236 1382.96 243.168 1382.91 243.082C1382.78 242.866 1382.64 242.663 1382.51 242.472C1382.41 242.324 1382.3 242.184 1382.19 242.049C1382.07 241.886 1381.93 241.734 1381.8 241.591C1381.67 241.451 1381.54 241.322 1381.41 241.201C1381.29 241.096 1381.17 240.996 1381.05 240.904C1380.62 240.575 1380.18 240.334 1379.72 240.173C1379.64 240.14 1379.55 240.114 1379.46 240.089C1379.25 240.031 1379.04 239.987 1378.83 239.957C1378.75 239.957 1378.68 239.938 1378.61 239.935C1378.37 239.914 1378.13 239.91 1377.89 239.916C1377.84 239.916 1377.79 239.916 1377.74 239.935C1377.47 239.957 1377.19 239.997 1376.9 240.059C1376.88 240.059 1376.86 240.059 1376.84 240.078H1376.84C1369.01 241.835 1357.83 257.754 1345.1 257.968C1336.02 258.131 1328.07 249.254 1321 243.221C1320.65 242.924 1320.31 242.634 1319.96 242.352C1317.86 240.629 1315.83 239.209 1313.88 238.441C1313.81 238.413 1313.74 238.386 1313.67 238.362C1313.37 238.246 1313.06 238.15 1312.76 238.071C1312.67 238.046 1312.58 238.025 1312.49 238.003C1309.58 237.333 1306.84 238.325 1304.24 242.117C1304.04 242.409 1303.84 242.717 1303.64 243.041C1303.57 243.156 1303.5 243.251 1303.43 243.37C1301.76 246.223 1300.15 249.431 1298.59 253.002C1298.55 253.095 1298.51 253.189 1298.47 253.283C1298.47 253.284 1298.47 253.283 1298.47 253.283C1298.2 253.913 1297.92 254.553 1297.65 255.208C1297.61 255.325 1297.56 255.442 1297.51 255.562C1297.51 255.562 1297.51 255.58 1297.5 255.582C1297.23 256.257 1296.95 256.942 1296.68 257.642C1296.67 257.676 1296.65 257.712 1296.64 257.744C1294.84 262.388 1293.11 267.591 1291.44 273.412C1291.41 273.526 1291.38 273.635 1291.35 273.746C1291.35 273.746 1291.34 273.765 1291.34 273.765C1291.1 274.607 1290.86 275.469 1290.63 276.338C1290.58 276.525 1290.52 276.708 1290.47 276.896C1290.25 277.71 1290.03 278.538 1289.81 279.376C1289.74 279.676 1289.66 279.975 1289.58 280.276C1289.58 280.277 1289.58 280.276 1289.58 280.276C1289.43 280.847 1289.28 281.43 1289.14 282.013C1288.64 284.016 1288.14 286.083 1287.64 288.215C1287.64 288.216 1287.64 288.215 1287.64 288.215C1287.59 288.448 1287.53 288.66 1287.48 288.894C1164.62 252.281 1052.72 233.369 888.824 221.783C888.845 221.724 888.863 221.665 888.884 221.607C889.225 220.636 889.551 219.647 889.882 218.659C890.174 217.781 890.463 216.9 890.744 216.008C891.047 215.051 891.341 214.089 891.629 213.116C891.922 212.125 892.203 211.121 892.48 210.114C893.42 206.709 894.279 203.238 895.001 199.681C895.027 199.558 895.052 199.439 895.075 199.316C895.227 198.555 895.376 197.793 895.517 197.025C895.553 196.829 895.587 196.632 895.621 196.435C896.03 194.164 896.384 191.868 896.682 189.55C896.726 189.208 896.771 188.866 896.812 188.523C896.89 187.88 896.962 187.235 897.031 186.588C897.07 186.22 897.106 185.852 897.141 185.482C897.205 184.832 897.268 184.18 897.321 183.527C897.354 183.13 897.379 182.729 897.407 182.331C897.484 181.271 897.546 180.206 897.596 179.139C897.62 178.624 897.645 178.108 897.662 177.591C897.681 177.061 897.694 176.528 897.705 175.994C897.716 175.422 897.724 174.849 897.727 174.274C897.73 173.77 897.732 173.267 897.73 172.761C897.727 172.082 897.71 171.399 897.694 170.716C897.679 170.099 897.66 169.482 897.635 168.863C897.602 168.058 897.564 167.252 897.514 166.443C897.489 166.049 897.458 165.652 897.43 165.258C897.375 164.514 897.314 163.77 897.243 163.024C897.207 162.642 897.173 162.26 897.132 161.878C897.041 161.01 896.94 160.141 896.827 159.271C896.795 159.029 896.77 158.788 896.738 158.545C896.587 157.442 896.417 156.34 896.232 155.237C896.185 154.957 896.13 154.678 896.081 154.399C895.928 153.534 895.765 152.668 895.588 151.802C895.524 151.481 895.455 151.159 895.386 150.836C895.193 149.931 894.986 149.026 894.767 148.12C894.712 147.896 894.664 147.671 894.608 147.447C894.315 146.274 894.001 145.102 893.663 143.93C893.657 143.904 893.648 143.879 893.64 143.853C893.32 142.749 892.976 141.645 892.615 140.54C892.54 140.313 892.465 140.088 892.388 139.861C892.052 138.852 891.696 137.844 891.322 136.836C891.268 136.695 891.218 136.551 891.165 136.409C890.274 134.039 889.281 131.674 888.18 129.317C888.133 129.213 888.081 129.112 888.033 129.008C887.525 127.931 886.994 126.855 886.443 125.781C886.377 125.654 886.311 125.527 886.246 125.4C884.399 121.85 882.297 118.324 879.924 114.833C879.866 114.748 879.809 114.663 879.751 114.577C877.335 111.047 874.64 107.553 871.641 104.106C871.616 104.077 871.589 104.047 871.564 104.021C805.501 28.235 592.873 -24.2411 1.55544 75.3196C1.23592 75.4235 1.05582 75.6503 1.00884 75.9918C1.00128 76.041 1.00724 76.1049 1.00503 76.1616C1.00346 76.2221 0.997447 76.2809 1.00123 76.3489C1.00501 76.3754 1.01445 76.4092 1.01634 76.4357C1.01634 76.4374 1.01634 76.4357 1.01634 76.4357C1.04922 76.6862 1.11821 76.9683 1.24033 77.2956C1.97017 79.2941 4.44946 82.7994 8.37595 87.5043C9.43942 88.7761 10.5828 90.1151 11.864 91.5685C12.384 92.1574 12.9509 92.7854 13.5069 93.4024L13.5144 93.4214C14.7768 94.8247 16.1034 96.283 17.5444 97.832C18.2914 98.6371 19.0839 99.4762 19.8796 100.319C21.2641 101.786 22.7065 103.298 24.232 104.875C41.7798 123.04 68.526 148.445 101.872 177.983C101.878 177.983 101.885 178.002 101.891 178.002H101.899C106.405 181.992 111.037 186.06 115.777 190.193C115.777 190.193 115.778 190.193 115.781 190.195C116.055 190.434 116.318 190.666 116.592 190.906C121.176 194.899 125.876 198.959 130.666 203.069C131.109 203.449 131.537 203.82 131.981 204.203C136.68 208.231 141.488 212.315 146.372 216.441C146.932 216.915 147.477 217.381 148.04 217.855C152.792 221.863 157.641 225.915 162.552 229.999C162.59 230.032 162.626 230.062 162.663 230.094C163.396 230.703 164.115 231.305 164.851 231.917C169.677 235.921 174.59 239.962 179.56 244.027C179.61 244.069 179.66 244.11 179.71 244.152C180.664 244.932 181.6 245.705 182.559 246.487C184.983 248.464 187.414 250.442 189.87 252.431C189.889 252.45 189.908 252.463 189.926 252.478C193.489 255.365 197.092 258.266 200.718 261.174C203.098 263.083 205.482 264.991 207.889 266.907C211.647 269.899 215.438 272.9 219.257 275.909C221.698 277.832 224.143 279.755 226.61 281.685C230.537 284.758 234.501 287.837 238.485 290.919C240.858 292.753 243.231 294.586 245.622 296.423C245.639 296.442 245.657 296.451 245.674 296.465C249.769 299.609 253.901 302.757 258.05 305.905C260.365 307.661 262.675 309.415 265.006 311.171C265.017 311.171 265.028 311.19 265.038 311.196C269.344 314.439 273.684 317.68 278.04 320.919C280.372 322.653 282.699 324.385 285.045 326.116C285.047 326.116 285.047 326.117 285.049 326.116C289.438 329.355 293.857 332.585 298.29 335.812C300.717 337.577 303.14 339.341 305.58 341.103C305.597 341.122 305.618 341.129 305.637 341.142C310.055 344.331 314.498 347.511 318.954 350.679C436.65 434.412 566.517 510.108 670.233 531.675C670.414 531.712 670.599 531.752 670.781 531.79C673.209 532.291 675.617 532.754 678.015 533.195C678.064 533.195 678.112 533.214 678.159 533.22C678.72 533.324 679.284 533.431 679.843 533.531C682.029 533.92 684.202 534.275 686.363 534.614C686.434 534.632 686.506 534.636 686.576 534.646C687.3 534.759 688.025 534.874 688.745 534.981C690.744 535.277 692.728 535.543 694.703 535.794C695.649 535.915 696.595 536.033 697.535 536.143C781.564 545.9 844.113 513.421 861.479 410.206C861.481 410.187 861.483 410.183 861.485 410.172C861.773 408.451 862.05 406.71 862.315 404.95C862.321 404.905 862.328 404.859 862.336 404.814C862.596 403.072 862.843 401.31 863.08 399.529C863.087 399.465 863.097 399.401 863.105 399.337C863.338 397.562 863.56 395.769 863.769 393.956C863.774 393.897 863.782 393.84 863.788 393.782C863.994 391.981 864.189 390.162 864.37 388.323C864.382 388.214 864.392 388.104 864.403 387.994C864.58 386.174 864.746 384.336 864.901 382.478C864.907 382.391 864.914 382.304 864.922 382.217C865.077 380.34 865.218 378.447 865.348 376.531C865.351 376.444 865.359 376.352 865.365 376.265C865.491 374.364 865.606 372.444 865.708 370.505C865.715 370.374 865.721 370.243 865.728 370.112C865.827 368.201 865.914 366.271 865.99 364.323C865.993 364.172 865.999 364.021 866.005 363.87C866.077 361.928 866.138 359.969 866.186 357.991C866.19 357.841 866.192 357.69 866.196 357.541C866.243 355.543 866.277 353.525 866.299 351.489C866.301 351.374 866.301 351.258 866.303 351.142C866.323 349.114 866.331 347.069 866.328 345.004C866.326 344.775 866.324 344.545 866.324 344.316C866.317 342.308 866.299 340.285 866.269 338.242C866.266 338.05 866.262 337.854 866.258 337.661C866.225 335.586 866.181 333.494 866.123 331.381C866.12 331.194 866.112 331.005 866.106 330.818C866.047 328.687 865.976 326.538 865.89 324.369C865.885 324.201 865.877 324.03 865.87 323.863C865.784 321.686 865.685 319.493 865.572 317.279C865.561 317.056 865.547 316.832 865.536 316.61C865.425 314.443 865.303 312.264 865.167 310.061C865.15 309.794 865.13 309.523 865.113 309.253C864.974 307.039 864.825 304.808 864.661 302.556C864.659 302.537 864.659 302.534 864.659 302.522L864.655 302.494C966.41 320.66 1063.41 340.737 1143.98 364.661C1144.26 364.742 1144.53 364.824 1144.81 364.906C1145.52 365.119 1146.21 365.335 1146.92 365.548C1150.9 366.741 1154.86 367.939 1158.76 369.152C1159.1 369.257 1159.44 369.361 1159.78 369.466C1166.47 371.554 1173.03 373.671 1179.47 375.819L1179.51 375.838C1180.59 376.198 1181.66 376.56 1182.74 376.923C1185.92 377.999 1189.08 379.084 1192.2 380.176L1192.31 380.218C1193.38 380.592 1194.45 380.965 1195.51 381.34C1196.25 381.6 1196.97 381.862 1197.7 382.122C1198.78 382.512 1199.88 382.899 1200.95 383.289C1202.5 383.848 1204.02 384.409 1205.54 384.971C1208.01 385.881 1210.45 386.797 1212.87 387.718C1214.18 388.217 1215.48 388.716 1216.77 389.219C1239.19 397.908 1259.46 407.072 1277.16 416.782C1278.93 426.837 1281.45 435.97 1284.43 444.564C1284.43 444.564 1284.43 444.564 1284.43 444.565C1284.47 444.664 1284.5 444.761 1284.54 444.86C1287.53 453.452 1290.97 461.507 1294.56 469.387C1305.95 494.387 1318.83 486.767 1333.1 483.581C1333.38 483.517 1333.67 483.459 1333.95 483.398C1336.49 482.867 1339.07 482.494 1341.69 482.494C1345.49 482.494 1349.13 483.483 1352.63 484.74C1352.79 484.797 1352.95 484.854 1353.1 484.91C1365.79 489.562 1376.75 497.407 1387.06 474.52C1393.84 459.456 1400.34 442.646 1404.09 422.201C1415.92 415.524 1428.81 409.029 1442.64 402.702C1443.67 402.227 1444.72 401.756 1445.77 401.284C1448.52 400.045 1451.3 398.812 1454.12 397.586C1455.04 397.184 1455.96 396.781 1456.9 396.38C1457.32 396.199 1457.75 396.019 1458.17 395.838C1459.56 395.245 1460.94 394.651 1462.34 394.061C1466.28 392.404 1470.29 390.759 1474.36 389.126C1475.21 388.783 1476.07 388.44 1476.93 388.098C1483.11 385.638 1489.42 383.201 1495.87 380.79C1496.26 380.649 1496.64 380.505 1497.02 380.363C1501.18 378.815 1505.4 377.279 1509.66 375.752C1510.02 375.623 1510.37 375.497 1510.73 375.37C1587.5 347.975 1681.32 323.788 1780.71 301.391C1783.18 300.834 1785.67 300.279 1788.15 299.723C1792.79 298.685 1797.43 297.646 1802.09 296.616C1801.94 301.581 1801.84 306.452 1801.79 311.232C1801.79 311.251 1801.79 311.251 1801.79 311.26C1801.79 311.26 1801.79 311.279 1801.79 311.279C1801.76 313.658 1801.75 316.014 1801.76 318.348C1801.76 318.368 1801.76 318.389 1801.76 318.41C1801.76 320.695 1801.78 322.955 1801.81 325.196C1801.81 325.221 1801.81 325.247 1801.81 325.27C1801.81 325.33 1801.81 325.395 1801.81 325.455C1801.84 327.72 1801.89 329.964 1801.94 332.185C1801.94 332.208 1801.95 332.231 1801.95 332.253C1802.06 336.739 1802.23 341.135 1802.45 345.444C1802.45 345.487 1802.46 345.531 1802.46 345.574C1802.57 347.729 1802.7 349.863 1802.83 351.974C1802.83 351.975 1802.83 351.974 1802.83 351.974C1802.83 351.974 1802.83 351.975 1802.83 351.975C1803.11 356.226 1803.44 360.388 1803.82 364.461L1803.82 364.48C1804.01 366.511 1804.21 368.521 1804.43 370.507C1804.43 370.525 1804.43 370.528 1804.43 370.537C1804.65 372.509 1804.87 374.459 1805.11 376.389C1805.12 376.419 1805.12 376.451 1805.12 376.483C1820.59 501.12 1887.99 537.519 1978.6 523.229C1979.73 523.051 1980.85 522.862 1981.98 522.67C1983.75 522.367 1985.53 522.053 1987.31 521.713C1988.32 521.522 1989.34 521.318 1990.36 521.114C1992.29 520.726 1994.22 520.325 1996.17 519.895C1997.06 519.7 1997.94 519.495 1998.83 519.293C2000.91 518.815 2003 518.324 2005.1 517.799C2005.86 517.612 2006.62 517.412 2007.38 517.218C2009.65 516.637 2011.92 516.039 2014.2 515.406C2014.21 515.406 2014.21 515.406 2014.21 515.406C2014.29 515.383 2014.37 515.358 2014.46 515.336C2115.55 487.297 2238.24 408.459 2349.16 322.496C2353.7 318.983 2358.22 315.462 2362.71 311.927C2364.9 310.205 2367.07 308.482 2369.25 306.756C2373.63 303.285 2377.99 299.81 2382.33 296.328C2384.52 294.568 2386.69 292.807 2388.87 291.043C2393.13 287.595 2397.38 284.143 2401.59 280.689C2403.82 278.862 2406.03 277.039 2408.24 275.213C2412.33 271.836 2416.41 268.459 2420.44 265.087C2422.72 263.184 2424.98 261.286 2427.24 259.386C2431.13 256.114 2434.99 252.845 2438.82 249.586C2441.15 247.606 2443.46 245.635 2445.76 243.661C2449.55 240.421 2453.3 237.187 2457.02 233.965C2459.25 232.037 2461.46 230.117 2463.66 228.196C2467.32 225.006 2470.95 221.83 2474.54 218.666C2476.72 216.746 2478.88 214.835 2481.04 212.926C2482.25 211.849 2483.44 210.785 2484.65 209.71C2489.27 205.598 2493.85 201.508 2498.34 197.456C2499.19 196.694 2500.01 195.943 2500.85 195.184C2505.49 190.991 2510.07 186.833 2514.56 182.723C2515.21 182.12 2515.85 181.531 2516.5 180.933C2521.08 176.732 2525.59 172.573 2529.99 168.472C2530.61 167.896 2531.21 167.334 2531.82 166.759C2536.24 162.637 2540.59 158.56 2544.83 154.552C2545.29 154.115 2545.73 153.692 2546.19 153.255C2550.54 149.133 2554.81 145.067 2558.95 141.081C2559.21 140.833 2559.46 140.597 2559.71 140.349C2563.99 136.227 2568.18 132.177 2572.22 128.219C2572.41 128.04 2572.58 127.868 2572.76 127.69C2576.88 123.663 2580.88 119.719 2584.73 115.88C2584.75 115.859 2584.77 115.841 2584.79 115.82C2604.75 95.9588 2621.17 78.7321 2633.16 65.2955C2633.2 65.2539 2633.23 65.2184 2633.27 65.1788C2633.29 65.1561 2633.3 65.1368 2633.32 65.1142C2634.95 63.2864 2636.47 61.5543 2637.93 59.8707C2638.62 59.0844 2639.31 58.292 2639.95 57.5385C2641.41 55.836 2642.75 54.2415 2644.02 52.7066C2644.47 52.1522 2644.96 51.5745 2645.39 51.042C2646.7 49.4334 2647.85 47.9609 2648.92 46.5653C2652.6 41.7682 2654.89 38.213 2655.54 36.1989C2655.65 35.8544 2655.72 35.5568 2655.74 35.2983C2655.74 35.2794 2655.74 35.2567 2655.74 35.2397C2655.77 34.6883 2655.58 34.3451 2655.15 34.2261C2462.93 9.92319 2310.86 -0.142692 2190.94 0.0124569L2190.94 0Z" fill="black" fill-opacity="0.407843"/>
<path d="M1827.63 318.905C1827.63 318.905 1507.5 -61.9287 2679.15 86.2065C2706.61 93.8402 1778.61 1013.25 1827.63 318.905Z" fill="#55B455"/>
<path d="M885.914 324.879C885.914 324.879 1190.15 -68.7715 25.5565 127.313C-1.56399 136.068 963.379 1016.63 885.914 324.879Z" fill="#55B455"/>
<path d="M1372.33 514.875C1510.52 374.878 2101.83 308.797 2395.04 223.766C1712.99 266.913 1571.39 278.658 1264.32 405.354C1288.69 395.734 1372.33 514.875 1372.33 514.875Z" fill="#33674A"/>
<path d="M1348.87 501.999C1205.05 367.791 611.531 326.028 315.079 253.098C998.321 268.224 1140.28 274.15 1452.3 388.137C1427.55 379.528 1348.87 501.999 1348.87 501.999V501.999Z" fill="#33674A"/>
<path d="M1429.2 403.824C1436.52 460.863 1424.34 497.016 1411.06 526.493C1397.79 555.97 1383.43 534.468 1365.7 534.468C1347.96 534.468 1332.2 551.282 1318.56 521.36C1304.93 491.436 1293.41 459.076 1300.73 403.824C1308.32 346.634 1316.6 313.843 1327.43 295.353C1338.26 276.861 1351.6 310.266 1369.1 309.953C1385.74 309.671 1399.76 282.509 1407.07 295.319C1413.53 306.643 1421.85 346.588 1429.2 403.824Z" fill="#399A39"/>
<path d="M2227.09 80.5622C2227.09 80.5622 2567.44 76.367 2671.75 96.2281C2642.16 78.6678 2221.27 32.9244 2227.09 80.5622Z" fill="#9FDB9F"/>
<path d="M702.422 86.9867C694.654 87.1433 706.805 89.7421 698.371 96.3013C745.564 102.601 790.887 110.835 828.83 132.854C871.581 157.665 896.67 176.528 903.534 216.298C909.177 213.374 914.705 216.8 916.325 212.065C918.376 206.036 917.03 198.766 912.35 190.673C889.623 153.271 850.761 128.561 818.865 116.026C781.902 101.778 730.155 86.5388 702.422 86.9867V86.9867Z" fill="#9FDB9F"/>
<path d="M2214.94 51.9783C1773.15 52.5422 1767.75 191.828 1798.64 268.936C1643.21 286.357 1535.13 308.478 1420.52 346.466C1415.77 320.256 1411.06 302.305 1407.07 295.303C1399.76 282.493 1385.74 309.654 1369.1 309.936C1351.6 310.249 1338.26 276.845 1327.43 295.337C1321.44 305.568 1316.23 320.176 1311.48 340.872C1188.63 304.259 1076.73 285.348 912.827 273.762C948.051 174.195 920.532 -23.3914 25.5584 127.297C-1.16111 135.923 935.106 990.797 888.661 354.456C1056.62 384.44 1211.63 419.634 1301.17 468.733C1304.72 488.976 1311.34 505.502 1318.56 521.344C1332.2 551.266 1347.96 534.452 1365.7 534.452C1383.43 534.452 1397.79 555.953 1411.06 526.477C1417.85 511.413 1424.34 494.603 1428.1 474.155C1516.89 424.032 1665.38 384.124 1826.1 348.571C1805.81 986.285 2706.21 93.7123 2679.16 86.1913C2486.93 61.8885 2334.86 51.8233 2214.94 51.9783V51.9783Z" stroke="#33674A" stroke-width="49.7272" stroke-linecap="square"/>
</svg>
