<?xml version="1.0" encoding="UTF-8" standalone="no"?>
<!-- Created with Inkscape (http://www.inkscape.org/) -->

<svg
   width="1685.3018mm"
   height="388.70874mm"
   viewBox="0 0 1685.3018 388.70874"
   version="1.1"
   id="svg5"
   sodipodi:docname="learning.svg"
   inkscape:version="1.2.1 (9c6d41e410, 2022-07-14)"
   xml:space="preserve"
   xmlns:inkscape="http://www.inkscape.org/namespaces/inkscape"
   xmlns:sodipodi="http://sodipodi.sourceforge.net/DTD/sodipodi-0.dtd"
   xmlns="http://www.w3.org/2000/svg"
   xmlns:svg="http://www.w3.org/2000/svg"><sodipodi:namedview
     id="namedview7"
     pagecolor="#ffffff"
     bordercolor="#000000"
     borderopacity="0.25"
     inkscape:showpageshadow="2"
     inkscape:pageopacity="0.0"
     inkscape:pagecheckerboard="0"
     inkscape:deskcolor="#d1d1d1"
     inkscape:document-units="mm"
     showgrid="false"
     inkscape:zoom="1.8101934"
     inkscape:cx="-75658.492"
     inkscape:cy="-17462.223"
     inkscape:window-width="1920"
     inkscape:window-height="1137"
     inkscape:window-x="-8"
     inkscape:window-y="-8"
     inkscape:window-maximized="1"
     inkscape:current-layer="layer1" /><defs
     id="defs2" /><g
     inkscape:label="Layer 1"
     inkscape:groupmode="layer"
     id="layer1"
     transform="translate(-5918.8375,4400.3055)"><g
       id="g1981"><path
         id="path574"
         style="fill:#ffffff;stroke-width:3.21905;stroke-linecap:square"
         d="m 6153.5816,-4246.2486 c -44.7987,-39.8766 -4.0836,-63.0317 30.4847,-25.4874 6.8275,8.1663 5.5379,20.4919 -2.8802,27.5299 -8.4181,7.038 -20.777,6.1236 -27.6045,-2.0425 z"
         sodipodi:nodetypes="ccsc" /><path
         id="rect576"
         style="fill:none;fill-opacity:1;stroke:#657cc1;stroke-width:12.1051;stroke-linecap:square;stroke-dasharray:none;stroke-opacity:1"
         d="m 6250.2324,-4335.0723 a 188.3019,188.3019 0 0 1 51.262,129.1213 188.3019,188.3019 0 0 1 -51.311,129.1213 h 1266.1118 c 45.3127,0 81.7919,-36.4793 81.7919,-81.7919 v -94.6588 c 0,-45.3127 -36.4792,-81.7919 -81.7919,-81.7919 z" /><circle
         style="fill:none;fill-opacity:1;stroke:#657cc1;stroke-width:12.1051;stroke-linecap:square;stroke-dasharray:none;stroke-opacity:1"
         id="circle580"
         cx="6113.1924"
         cy="-4205.9512"
         r="188.3019" /><path
         id="path582"
         style="fill:#afdde9;fill-opacity:1;stroke:#94c7e3;stroke-width:8.07008;stroke-linecap:square;stroke-dasharray:none;stroke-opacity:1"
         d="m 6116.3649,-4017.6588 a 55.661092,55.661094 0 0 1 -57.2757,-53.9986 55.661092,55.661094 0 0 1 20.6781,-44.9087 c -1.9122,-3.8614 -3.0486,-8.1893 -3.1844,-12.7933 l -6.8267,-231.8134 c -0.5022,-17.0506 12.8203,-31.1815 29.8711,-31.6838 l 8.8791,-0.2615 c 17.051,-0.502 31.1817,12.8204 31.6839,29.871 l 6.8269,231.8135 c 0.1195,4.0645 -0.5541,7.9593 -1.8688,11.5468 a 55.661092,55.661094 0 0 1 25.2149,44.9527 55.661092,55.661094 0 0 1 -53.9984,57.2753 z" /><path
         id="path584"
         style="fill:#c9b6ba;fill-opacity:1;stroke:none;stroke-width:7.53208;stroke-linecap:square"
         d="m 6114.7272,-4032.4887 a 37.660378,37.660378 0 0 1 -37.6603,-37.6603 37.660378,37.660378 0 0 1 19.5126,-32.9751 c -0.028,-0.25 -0.058,-0.4999 -0.07,-0.7553 l -8.5949,-205.6104 c -0.2411,-5.7689 4.2091,-10.6077 9.978,-10.8488 l 13.4415,-0.5616 c 5.7689,-0.2411 10.6077,4.2092 10.8489,9.978 l 8.5948,205.6104 c 0.015,0.3712 0.013,0.7382 -0.013,1.1007 a 37.660378,37.660378 0 0 1 21.6221,34.0621 37.660378,37.660378 0 0 1 -37.6605,37.6603 z" /><path
         style="fill:none;fill-opacity:1;stroke:#53676c;stroke-width:5.56611;stroke-linecap:square;stroke-dasharray:none;stroke-opacity:0.576271"
         d="m 6076.3604,-4272.7223 44.5094,1.3107 z"
         id="path586" /><path
         style="fill:none;fill-opacity:1;stroke:#53676c;stroke-width:5.56611;stroke-linecap:square;stroke-dasharray:none;stroke-opacity:0.576271"
         d="m 6075.6223,-4247.6598 44.5093,1.3108 z"
         id="path588" /><path
         style="fill:none;fill-opacity:1;stroke:#53676c;stroke-width:5.56611;stroke-linecap:square;stroke-dasharray:none;stroke-opacity:0.576271"
         d="m 6074.8843,-4222.5974 44.5095,1.3109 z"
         id="path590" /><path
         style="fill:none;fill-opacity:1;stroke:#53676c;stroke-width:5.56611;stroke-linecap:square;stroke-dasharray:none;stroke-opacity:0.576271"
         d="m 6074.1462,-4197.5349 44.5093,1.3106 z"
         id="path592" /><path
         style="fill:none;fill-opacity:1;stroke:#53676c;stroke-width:5.56611;stroke-linecap:square;stroke-dasharray:none;stroke-opacity:0.576271"
         d="m 6069.7178,-4047.1607 44.5093,1.3106 z"
         id="path594" /><path
         style="fill:none;fill-opacity:1;stroke:#53676c;stroke-width:5.56611;stroke-linecap:square;stroke-dasharray:none;stroke-opacity:0.576271"
         d="m 6071.9319,-4122.348 44.5095,1.3108 z"
         id="path596" /><path
         style="fill:none;fill-opacity:1;stroke:#53676c;stroke-width:5.56611;stroke-linecap:square;stroke-dasharray:none;stroke-opacity:0.576271"
         d="m 6073.408,-4172.4727 44.5095,1.3108 z"
         id="path598" /><path
         style="fill:none;fill-opacity:1;stroke:#53676c;stroke-width:5.56611;stroke-linecap:square;stroke-dasharray:none;stroke-opacity:0.576271"
         d="m 6072.67,-4147.4102 44.5094,1.3108 z"
         id="path600" /><path
         style="fill:none;fill-opacity:1;stroke:#53676c;stroke-width:5.56611;stroke-linecap:square;stroke-dasharray:none;stroke-opacity:0.576271"
         d="m 6071.1938,-4097.2853 44.5093,1.3106 z"
         id="path602" /><path
         style="fill:none;fill-opacity:1;stroke:#53676c;stroke-width:5.56611;stroke-linecap:square;stroke-dasharray:none;stroke-opacity:0.576271"
         d="m 6070.4557,-4072.2229 44.5093,1.3107 z"
         id="path604" /><rect
         style="fill:#ffffff;fill-opacity:0.172881;stroke:none;stroke-width:7.15251;stroke-linecap:square"
         id="rect606"
         width="6.4506788"
         height="284.18323"
         x="5954.8633"
         y="-4658.7651"
         ry="3.9653478"
         transform="matrix(0.99851248,0.05452355,-0.03129958,0.99951005,0,0)" /></g></g></svg>
