<?xml version="1.0" encoding="UTF-8" standalone="no"?>
<!-- Created with Inkscape (http://www.inkscape.org/) -->

<svg
   width="1685.3013mm"
   height="388.70898mm"
   viewBox="0 0 1685.3013 388.70898"
   version="1.1"
   id="svg5"
   sodipodi:docname="learning.svg"
   inkscape:version="1.2.1 (9c6d41e410, 2022-07-14)"
   xml:space="preserve"
   xmlns:inkscape="http://www.inkscape.org/namespaces/inkscape"
   xmlns:sodipodi="http://sodipodi.sourceforge.net/DTD/sodipodi-0.dtd"
   xmlns="http://www.w3.org/2000/svg"
   xmlns:svg="http://www.w3.org/2000/svg"><sodipodi:namedview
     id="namedview7"
     pagecolor="#ffffff"
     bordercolor="#000000"
     borderopacity="0.25"
     inkscape:showpageshadow="2"
     inkscape:pageopacity="0.0"
     inkscape:pagecheckerboard="0"
     inkscape:deskcolor="#d1d1d1"
     inkscape:document-units="mm"
     showgrid="false"
     inkscape:zoom="1.8101934"
     inkscape:cx="-75658.492"
     inkscape:cy="-17462.223"
     inkscape:window-width="1920"
     inkscape:window-height="1137"
     inkscape:window-x="-8"
     inkscape:window-y="-8"
     inkscape:window-maximized="1"
     inkscape:current-layer="layer1" /><defs
     id="defs2" /><g
     inkscape:label="Layer 1"
     inkscape:groupmode="layer"
     id="layer1"
     transform="translate(-5918.838,3789.9291)"><path
       id="path702"
       style="fill:#80b3ff;fill-opacity:1;stroke:#ff3030;stroke-width:12.1051;stroke-linecap:square;stroke-dasharray:none;stroke-opacity:0"
       d="m 6113.1922,-3783.8765 a 188.3019,188.3019 0 0 0 -188.3017,188.3022 188.3019,188.3019 0 0 0 188.3017,188.3017 188.3019,188.3019 0 0 0 136.9911,-59.1804 h 1266.1119 c 45.3126,0 81.7919,-36.4794 81.7919,-81.7919 v -94.6588 c 0,-45.3127 -36.4793,-81.7919 -81.7919,-81.7919 H 6250.2324 a 188.3019,188.3019 0 0 0 -137.0402,-59.1809 z m 170.9947,109.4713 a 188.3019,188.3019 0 0 1 0.032,0.071 188.3019,188.3019 0 0 0 -0.032,-0.071 z m 7.4559,18.7699 a 188.3019,188.3019 0 0 1 0.1013,0.3029 188.3019,188.3019 0 0 0 -0.1013,-0.3029 z m 5.4209,19.526 a 188.3019,188.3019 0 0 1 0.084,0.3782 188.3019,188.3019 0 0 0 -0.084,-0.3782 z m 3.3052,20.0794 a 188.3019,188.3019 0 0 1 0.034,0.2966 188.3019,188.3019 0 0 0 -0.034,-0.2966 z m 1.125,20.4432 a 188.3019,188.3019 0 0 1 5e-4,0.012 188.3019,188.3019 0 0 1 0,0.031 188.3019,188.3019 0 0 0 0,-0.031 188.3019,188.3019 0 0 0 0,-0.012 z m -0.9891,18.1927 a 188.3019,188.3019 0 0 1 -0.5085,4.5134 188.3019,188.3019 0 0 0 0.5085,-4.5134 z m -3.1554,20.6757 a 188.3019,188.3019 0 0 1 -0.3627,1.9162 188.3019,188.3019 0 0 0 0.3627,-1.9162 z m -5.2932,19.7109 a 188.3019,188.3019 0 0 1 -1.203,3.4386 188.3019,188.3019 0 0 0 1.203,-3.4386 z m -7.1918,18.509 a 188.3019,188.3019 0 0 1 -1.0738,2.4608 188.3019,188.3019 0 0 0 1.0738,-2.4608 z m -9.8531,19.0722 a 188.3019,188.3019 0 0 1 -1.218,1.9389 188.3019,188.3019 0 0 0 1.218,-1.9389 z m -10.7053,15.9809 a 188.3019,188.3019 0 0 1 -1.7224,2.3338 188.3019,188.3019 0 0 0 1.7224,-2.3338 z" /></g></svg>
