<svg width="6325" height="1425" viewBox="0 0 6325 1425" fill="none" xmlns="http://www.w3.org/2000/svg">
<path d="M712.569 0.875977C619.108 0.876076 526.562 19.2847 440.216 55.0507C353.869 90.8167 275.412 143.24 209.325 209.327C143.238 275.414 90.8166 353.87 55.0508 440.217C19.285 526.563 0.876804 619.109 0.876953 712.569C0.877154 901.322 75.8588 1082.34 209.327 1215.81C342.795 1349.28 523.816 1424.26 712.569 1424.26C809.558 1424.23 905.515 1404.37 994.551 1365.9C1083.59 1327.44 1163.82 1271.18 1230.33 1200.59H6015.64C6186.9 1200.59 6324.77 1062.71 6324.77 891.452V533.686C6324.77 362.425 6186.9 224.552 6015.64 224.552H1230.52C1163.99 153.933 1083.72 97.6624 994.653 59.1975C905.583 20.7326 809.589 0.886046 712.569 0.875977V0.875977ZM1358.85 414.625C1358.89 414.715 1358.93 414.804 1358.97 414.894C1358.93 414.804 1358.89 414.715 1358.85 414.625V414.625ZM1387.03 485.567C1387.15 485.949 1387.28 486.33 1387.41 486.711C1387.28 486.33 1387.15 485.949 1387.03 485.567ZM1407.51 559.366C1407.62 559.842 1407.73 560.318 1407.83 560.795C1407.73 560.318 1407.62 559.842 1407.51 559.366V559.366ZM1420.01 635.257C1420.05 635.631 1420.09 636.004 1420.14 636.377C1420.09 636.004 1420.05 635.631 1420.01 635.257V635.257ZM1424.26 712.522C1424.26 712.538 1424.26 712.553 1424.26 712.568C1424.26 712.607 1424.26 712.646 1424.26 712.685C1424.26 712.646 1424.26 712.607 1424.26 712.568C1424.26 712.553 1424.26 712.538 1424.26 712.522H1424.26ZM1420.52 781.282C1419.95 786.976 1419.31 792.662 1418.6 798.341C1419.31 792.662 1419.95 786.976 1420.52 781.282V781.282ZM1408.6 859.427C1408.15 861.843 1407.69 864.257 1407.22 866.669C1407.69 864.257 1408.15 861.843 1408.6 859.427V859.427ZM1388.59 933.925C1387.12 938.271 1385.6 942.603 1384.04 946.92C1385.6 942.603 1387.12 938.271 1388.59 933.925V933.925ZM1361.41 1003.88C1360.08 1006.99 1358.72 1010.09 1357.35 1013.18C1358.72 1010.09 1360.08 1006.99 1361.41 1003.88V1003.88ZM1324.17 1075.96C1322.65 1078.42 1321.11 1080.86 1319.56 1083.29C1321.11 1080.86 1322.65 1078.42 1324.17 1075.96V1075.96ZM1283.71 1136.36C1281.56 1139.32 1279.39 1142.26 1277.2 1145.18C1279.39 1142.26 1281.56 1139.32 1283.71 1136.36V1136.36Z" fill="#80B3FF"/>
</svg>
