<svg width="1551" height="1501" viewBox="0 0 1551 1501" fill="none" xmlns="http://www.w3.org/2000/svg">
<path opacity="0.406716" d="M1087.54 1284.23C1013.61 1343.01 798.369 1215.52 813.874 1210.75C829.378 1205.97 728.224 1529.7 605.878 1515.96C485.844 1502.48 458.98 1171.12 473.321 1178.71C487.663 1186.29 202.615 1384.57 115.829 1294.28C22.5473 1197.23 250.391 899.742 255.168 915.246C259.946 930.751 -1.50753 850.829 0.00655084 749.399C1.67937 637.357 294.792 560.352 287.207 574.694C279.621 589.036 181.89 301.849 274.367 238.276C356.923 181.522 566.173 351.764 550.668 356.541C535.163 361.319 625.169 15.5588 753.395 27.622C881.621 39.6851 905.562 396.165 891.22 388.58C876.878 380.994 1129.75 286.746 1193.39 365.203C1256.16 442.577 1114.15 667.546 1109.37 652.041C1104.6 636.536 1450.36 726.542 1438.29 854.767C1426.23 982.993 1069.75 1006.94 1077.33 992.594C1084.92 978.252 1163.68 1223.69 1087.54 1284.23Z" fill="black"/>
<path d="M1183.71 1272.92C1109.77 1331.7 894.536 1204.21 910.04 1199.43C925.545 1194.65 824.391 1518.39 702.045 1504.65C582.011 1491.16 555.146 1159.81 569.488 1167.39C583.83 1174.98 298.782 1373.26 211.996 1282.97C118.714 1185.92 346.558 888.428 351.335 903.933C356.113 919.438 94.6591 839.516 96.1732 738.086C97.846 626.044 390.959 549.039 383.373 563.38C375.788 577.722 278.057 290.536 370.534 226.963C453.09 170.209 662.339 340.451 646.834 345.228C631.33 350.005 721.336 4.24537 849.562 16.3085C977.788 28.3716 1001.73 384.851 987.387 377.266C973.045 369.681 1225.92 275.432 1289.56 353.89C1352.32 431.263 1210.32 656.233 1205.54 640.728C1200.76 625.223 1546.52 715.229 1534.46 843.455C1522.4 971.681 1165.92 995.622 1173.5 981.28C1181.09 966.938 1259.85 1212.38 1183.71 1272.92Z" fill="#55B455" stroke="#33674A" stroke-width="31.6106" stroke-linejoin="bevel"/>
</svg>
