<svg width="1551" height="1521" viewBox="0 0 1551 1521" fill="none" xmlns="http://www.w3.org/2000/svg">
<g clip-path="url(#clip0_3_10)">
<path opacity="0.406716" d="M1087.54 1284.04C1013.61 1342.82 798.369 1215.33 813.874 1210.56C829.379 1205.78 728.225 1529.51 605.879 1515.77C485.845 1502.29 458.98 1170.93 473.321 1178.52C487.663 1186.1 202.615 1384.38 115.83 1294.09C22.5474 1197.04 250.391 899.553 255.169 915.058C259.946 930.562 -1.50753 850.64 0.00655084 749.21C1.67937 637.168 294.792 560.164 287.207 574.505C279.621 588.847 181.89 301.661 274.367 238.088C356.923 181.334 566.173 351.576 550.668 356.353C535.163 361.13 625.169 15.3694 753.395 27.4325C881.621 39.4956 905.562 395.975 891.22 388.39C876.879 380.805 1129.75 286.556 1193.39 365.014C1256.16 442.387 1114.15 667.357 1109.37 651.852C1104.6 636.347 1450.36 726.353 1438.29 854.579C1426.23 982.805 1069.75 1006.75 1077.33 992.404C1084.92 978.062 1163.68 1223.51 1087.54 1284.04V1284.04Z" fill="black"/>
<path d="M1183.71 1272.73C1109.77 1331.51 894.536 1204.02 910.041 1199.24C925.545 1194.47 824.391 1518.2 702.045 1504.46C582.011 1490.97 555.146 1159.62 569.488 1167.21C583.83 1174.79 298.782 1373.07 211.996 1282.78C118.714 1185.73 346.558 888.239 351.335 903.744C356.113 919.249 94.6592 839.326 96.1733 737.896C97.8461 625.854 390.959 548.85 383.374 563.192C375.788 577.534 278.057 290.347 370.534 226.774C453.09 170.02 662.339 340.262 646.835 345.039C631.33 349.817 721.336 4.05592 849.562 16.119C977.788 28.1822 1001.73 384.663 987.387 377.078C973.045 369.492 1225.92 275.243 1289.56 353.7C1352.33 431.074 1210.32 656.043 1205.54 640.538C1200.76 625.034 1546.52 715.04 1534.46 843.265C1522.4 971.491 1165.92 995.433 1173.5 981.091C1181.09 966.749 1259.85 1212.19 1183.71 1272.73V1272.73Z" fill="#55B455" stroke="#33674A" stroke-width="31.6106" stroke-linejoin="bevel"/>
<path d="M1065.48 865.059C1114.36 865.059 1153.98 825.434 1153.98 776.554C1153.98 727.674 1114.36 688.048 1065.48 688.048C1016.59 688.048 976.969 727.674 976.969 776.554C976.969 825.434 1016.59 865.059 1065.48 865.059Z" fill="#C54444"/>
<path opacity="0.432836" d="M1100.87 772.724C1108.09 772.724 1113.95 759.041 1113.95 742.163C1113.95 725.284 1108.09 711.601 1100.87 711.601C1093.64 711.601 1087.79 725.284 1087.79 742.163C1087.79 759.041 1093.64 772.724 1100.87 772.724Z" fill="white"/>
</g>
<defs>
<clipPath id="clip0_3_10">
<rect width="1550.58" height="1520.69" fill="white"/>
</clipPath>
</defs>
</svg>
