<svg width="437" height="426" viewBox="0 0 437 426" fill="none" xmlns="http://www.w3.org/2000/svg">
<circle cx="208" cy="213" r="193" fill="#45AB51"/>
<circle cx="120.5" cy="87.5" r="87.5" fill="#45AB51"/>
<circle cx="120.5" cy="87.5" r="87.5" fill="#45AB51"/>
<circle cx="197.5" cy="338.5" r="87.5" fill="#45AB51"/>
<circle cx="197.5" cy="338.5" r="87.5" fill="#45AB51"/>
<circle cx="87.5" cy="173.5" r="87.5" fill="#45AB51"/>
<circle cx="51.5" cy="249.5" r="51.5" fill="#45AB51"/>
<circle cx="271.5" cy="367.5" r="51.5" fill="#45AB51"/>
<circle cx="358.5" cy="287.5" r="51.5" fill="#45AB51"/>
<circle cx="306.5" cy="338.5" r="51.5" fill="#45AB51"/>
<circle cx="358.5" cy="133.5" r="51.5" fill="#45AB51"/>
<circle cx="87.5" cy="308.5" r="63.5" fill="#45AB51"/>
<circle cx="134.5" cy="315.5" r="63.5" fill="#45AB51"/>
<circle cx="285.5" cy="300.5" r="87.5" fill="#45AB51"/>
<circle cx="349.5" cy="221.5" r="87.5" fill="#45AB51"/>
<circle cx="271.5" cy="107.5" r="87.5" fill="#45AB51"/>
<circle cx="174.5" cy="87.5" r="87.5" fill="#45AB51"/>
<circle cx="103.474" cy="295.573" r="29.5" transform="rotate(-161.072 103.474 295.573)" fill="#F3C82E"/>
<ellipse cx="108.489" cy="268.542" rx="17" ry="5" transform="rotate(-127.402 108.489 268.542)" fill="#084B2C"/>
<ellipse cx="211" cy="367.5" rx="63" ry="20.5" fill="#45AB51"/>
</svg>
