<svg width="6370" height="1470" viewBox="0 0 6370 1470" fill="none" xmlns="http://www.w3.org/2000/svg">
<path d="M1252.45 246.551C1376.89 378.572 1446.22 553.138 1446.26 734.568C1445.89 916.17 1376.1 1090.76 1251.2 1222.59H6037.64C6208.9 1222.59 6346.77 1084.71 6346.77 913.451V555.686C6346.77 384.425 6208.9 246.551 6037.64 246.551H1252.45Z" stroke="#AA4400" stroke-width="45.7516" stroke-linecap="square"/>
<path d="M734.569 1446.26C1127.63 1446.26 1446.26 1127.63 1446.26 734.569C1446.26 341.512 1127.63 22.876 734.569 22.876C341.512 22.876 22.877 341.512 22.877 734.569C22.877 1127.63 341.512 1446.26 734.569 1446.26Z" stroke="#AA4400" stroke-width="45.7516" stroke-linecap="square"/>
<path opacity="0.91" d="M671.036 292.945C569.007 308.17 475.837 359.529 408.488 437.669C341.139 515.809 304.09 615.535 304.085 718.694C304.085 832.865 349.439 942.361 430.171 1023.09C510.903 1103.82 620.398 1149.18 734.57 1149.18C791.102 1149.18 847.08 1138.04 899.309 1116.41C951.538 1094.78 998.994 1063.07 1038.97 1023.09C1078.94 983.118 1110.65 935.662 1132.29 883.433C1153.92 831.204 1165.05 775.226 1165.05 718.694C1165.04 668.101 1156.11 617.907 1138.68 570.415C1115.51 572.856 1092.47 567.541 1073.07 555.282C1058.89 546.239 1047.17 533.783 1038.9 518.964C1030.64 504.145 1026.06 487.395 1025.57 470.122C1000.58 487.459 971.435 497.19 941.685 498.121C911.935 499.052 882.876 491.144 858.068 475.366C834.052 460.058 815.025 438.001 803.177 411.736C791.329 385.471 787.142 356.066 791.099 326.909C775.708 332.82 759.315 335.107 743.182 333.595C727.049 332.084 711.606 326.813 698.041 318.189C687.586 311.516 678.444 302.969 671.036 292.945V292.945ZM734.57 568.025C774.53 568.025 812.852 583.899 841.108 612.155C869.364 640.411 885.239 678.734 885.239 718.694C885.239 758.654 869.364 796.976 841.108 825.232C812.852 853.488 774.53 869.363 734.57 869.363C694.61 869.363 656.286 853.488 628.03 825.232C599.774 796.976 583.9 758.654 583.9 718.694C583.9 698.907 587.797 679.315 595.368 661.035C602.94 642.755 614.038 626.146 628.029 612.155C642.02 598.164 658.63 587.065 676.91 579.494C695.19 571.922 714.784 568.025 734.57 568.025V568.025Z" fill="#333333" fill-opacity="0.264407"/>
<g opacity="0.91">
<path d="M647.14 287.859C451.035 328.046 303.531 501.584 303.531 709.573C303.71 714.816 303.985 720.056 304.355 725.289C301.605 782.372 311.467 825.668 328.901 856.783C358.51 940.74 413.421 1013.45 486.071 1064.91C558.72 1116.36 645.536 1144.03 734.561 1144.09C824.66 1144.03 912.469 1115.71 985.616 1063.1C1058.76 1010.5 1113.56 936.267 1142.29 850.871C1171.51 838.285 1165.65 786.301 1164.03 740.84C1164.65 731.776 1164.99 722.694 1165.05 713.608C1164.98 701.122 1164.37 688.644 1163.22 676.211C1160.61 642.285 1154.07 609.463 1144.05 578.191C1143.69 578.274 1143.33 578.355 1142.96 578.434C1141.6 574.042 1140.17 569.673 1138.67 565.328C1115.5 567.769 1092.46 562.454 1073.06 550.195C1058.88 541.152 1047.16 528.698 1038.89 513.879C1030.63 499.06 1026.05 482.31 1025.56 465.036C1000.58 482.373 971.426 492.103 941.676 493.035C911.927 493.966 882.868 486.058 858.06 470.28C834.044 454.971 815.017 432.915 803.168 406.649C791.32 380.384 787.134 350.979 791.092 321.822C775.7 327.733 759.307 330.021 743.174 328.509C727.041 326.997 711.597 321.727 698.032 313.103C687.578 306.43 678.436 297.883 671.028 287.859C663.798 289.026 656.6 290.377 649.439 291.912C648.643 290.579 647.876 289.228 647.14 287.859V287.859ZM734.561 562.937C770.704 562.946 805.64 575.946 832.996 599.567C860.352 623.187 878.306 655.855 883.583 691.61C884.283 697.505 884.686 703.49 884.686 709.573C884.502 714.832 884.043 720.078 883.31 725.289C883.173 729.902 882.938 734.702 882.722 739.465C876.642 774.369 858.456 806.013 831.36 828.839C804.263 851.665 769.991 864.213 734.561 864.277C701.231 864.253 668.85 853.177 642.487 832.785C616.123 812.392 597.266 783.833 588.866 751.579C586.98 742.361 585.395 733.454 584.721 725.289C584.614 724.522 584.555 723.749 584.458 722.981C584.172 719.863 583.983 716.737 583.891 713.608C583.891 693.822 587.788 674.229 595.36 655.949C602.932 637.668 614.03 621.059 628.021 607.068C642.012 593.077 658.622 581.979 676.902 574.407C695.182 566.835 714.775 562.937 734.561 562.937V562.937Z" fill="#90674C"/>
</g>
<path d="M671.036 320.906C569.007 336.131 475.837 387.487 408.488 465.627C341.139 543.768 304.09 643.496 304.085 746.655C304.085 860.826 349.439 970.322 430.171 1051.05C510.903 1131.79 620.398 1177.14 734.57 1177.14C791.102 1177.14 847.08 1166.01 899.309 1144.37C951.538 1122.74 998.994 1091.03 1038.97 1051.05C1078.94 1011.08 1110.65 963.623 1132.29 911.394C1153.92 859.165 1165.05 803.187 1165.05 746.655C1165.04 696.062 1156.11 645.868 1138.68 598.376C1115.51 600.816 1092.47 595.5 1073.07 583.241C1058.89 574.198 1047.17 561.744 1038.9 546.925C1030.64 532.106 1026.06 515.356 1025.57 498.083C1000.58 515.42 971.435 525.15 941.685 526.082C911.935 527.013 882.876 519.105 858.068 503.327C834.052 488.019 815.025 465.962 803.177 439.697C791.329 413.432 787.142 384.027 791.099 354.87C775.708 360.781 759.315 363.068 743.182 361.556C727.049 360.045 711.606 354.774 698.041 346.149C687.586 339.477 678.444 330.93 671.036 320.906V320.906ZM734.57 595.983C774.53 595.983 812.852 611.858 841.108 640.114C869.364 668.37 885.239 706.695 885.239 746.655C885.239 786.615 869.364 824.937 841.108 853.193C812.852 881.449 774.53 897.324 734.57 897.324C694.61 897.324 656.286 881.449 628.03 853.193C599.774 824.937 583.9 786.615 583.9 746.655C583.9 726.868 587.797 707.276 595.368 688.996C602.94 670.716 614.038 654.105 628.029 640.114C642.02 626.123 658.63 615.026 676.91 607.454C695.19 599.883 714.784 595.983 734.57 595.983V595.983Z" fill="#FF9955"/>
<path d="M647.149 320.906C451.044 361.093 303.54 534.631 303.54 742.621C303.718 747.864 303.992 753.101 304.364 758.335C300.858 831.103 317.788 881.56 344.865 912.794C371.943 944.028 334.252 758.655 450.566 749.235C556.049 740.691 408.002 925.865 547.864 912.583C635.555 904.256 589.373 814.624 584.73 758.335C583.997 753.124 583.538 747.88 583.355 742.621C583.355 659.408 650.812 591.949 734.025 591.949C817.238 591.95 884.694 659.408 884.694 742.621C884.511 747.88 884.052 753.124 883.32 758.335C881.67 813.656 871.369 883.219 924.415 883.953C1002.68 885.037 935.255 703.49 1052.49 752.699C1120.32 781.173 1057.23 878.346 1119.16 886.244C1179.45 893.932 1163.81 815.693 1163.69 758.335C1164.06 753.101 1164.33 747.864 1164.51 742.621C1164.51 696.797 1157.32 652.659 1144.06 611.238C1129.68 615.51 1114.69 616.702 1100.04 614.737C1085.4 612.772 1071.44 607.694 1059.05 599.83C1044.87 590.787 1033.15 578.333 1024.89 563.514C1016.62 548.695 1012.05 531.945 1011.55 514.672C986.571 532.009 957.42 541.739 927.671 542.671C897.921 543.602 868.863 535.694 844.055 519.916C820.039 504.607 801.01 482.549 789.162 456.284C777.314 430.018 773.128 400.614 777.086 371.456C761.695 377.367 745.302 379.654 729.169 378.143C713.036 376.631 697.591 371.36 684.026 362.736C668.142 352.551 655.404 338.102 647.149 320.906V320.906Z" fill="#8C5836"/>
<path d="M647.138 320.906C451.033 361.093 303.529 534.63 303.529 742.62C303.708 747.863 303.983 753.103 304.353 758.336C301.603 815.419 311.465 858.715 328.899 889.83C358.508 973.787 413.419 1046.5 486.069 1097.95C558.718 1149.41 645.534 1177.07 734.56 1177.14C824.658 1177.08 912.467 1148.75 985.614 1096.15C1058.76 1043.54 1113.56 969.314 1142.29 883.918C1171.51 871.332 1165.65 819.348 1164.03 773.887C1164.65 764.823 1164.99 755.741 1165.04 746.655C1164.98 734.169 1164.37 721.691 1163.22 709.258C1160.61 675.332 1154.06 642.51 1144.05 611.238C1143.69 611.321 1143.33 611.401 1142.96 611.481C1141.6 607.089 1140.17 602.72 1138.67 598.375C1115.5 600.816 1092.46 595.501 1073.06 583.242C1058.88 574.199 1047.16 561.745 1038.89 546.926C1030.63 532.107 1026.05 515.357 1025.56 498.083C1000.57 515.42 971.424 525.15 941.674 526.081C911.925 527.013 882.866 519.105 858.058 503.326C834.042 488.018 815.015 465.961 803.167 439.696C791.318 413.431 787.132 384.026 791.09 354.869C775.698 360.78 759.305 363.068 743.172 361.556C727.039 360.044 711.595 354.774 698.03 346.15C687.576 339.477 678.434 330.93 671.026 320.906C663.796 322.073 656.598 323.424 649.437 324.959C648.641 323.626 647.874 322.275 647.138 320.906V320.906ZM734.56 595.984C770.702 595.993 805.638 608.993 832.994 632.613C860.35 656.234 878.304 688.902 883.581 724.657C884.281 730.552 884.684 736.537 884.684 742.62C884.5 747.879 884.041 753.125 883.309 758.336C883.171 762.949 882.936 767.749 882.72 772.512C876.64 807.416 858.454 839.06 831.358 861.886C804.261 884.712 769.989 897.259 734.56 897.324C701.23 897.299 668.848 886.224 642.485 865.832C616.121 845.439 597.264 816.88 588.864 784.626C586.978 775.408 585.393 766.501 584.719 758.336C584.612 757.569 584.553 756.796 584.457 756.027C584.17 752.91 583.981 749.784 583.889 746.655C583.889 726.868 587.787 707.276 595.358 688.995C602.93 670.715 614.028 654.106 628.019 640.115C642.01 626.124 658.62 615.025 676.9 607.454C695.18 599.882 714.773 595.984 734.56 595.984V595.984Z" stroke="#2B1100" stroke-width="8.27233" stroke-linecap="round" stroke-linejoin="round"/>
</svg>
