<svg width="666" height="680" viewBox="0 0 666 680" fill="none" xmlns="http://www.w3.org/2000/svg">
<circle r="99" transform="matrix(-1 0 0 1 563 103)" fill="#DAF1F7" stroke="#257B84" stroke-width="8"/>
<circle r="255.5" transform="matrix(-1 0 0 1 324.5 420.5)" fill="#DAF1F7" stroke="#257B84" stroke-width="8"/>
<circle r="99" transform="matrix(-1 0 0 1 103 172)" fill="#DAF1F7" stroke="#257B84" stroke-width="8"/>
<circle r="46" transform="matrix(-1 0 0 1 414 291)" fill="#333333"/>
<circle r="46" transform="matrix(-1 0 0 1 414 291)" stroke="#D9D9D9"/>
<circle r="46" transform="matrix(-1 0 0 1 231 291)" fill="#333333"/>
<circle r="46" transform="matrix(-1 0 0 1 231 291)" stroke="#D9D9D9"/>
<circle r="20" transform="matrix(-1 0 0 1 226 300)" fill="white"/>
<circle r="20" transform="matrix(-1 0 0 1 226 300)" stroke="#D9D9D9"/>
<circle r="20" transform="matrix(-1 0 0 1 405 305)" fill="white"/>
<circle r="20" transform="matrix(-1 0 0 1 405 305)" stroke="#D9D9D9"/>
</svg>
