<svg width="1551" height="1521" viewBox="0 0 1551 1521" fill="none" xmlns="http://www.w3.org/2000/svg">
<path opacity="0.406716" d="M1087.54 1284.04C1013.61 1342.82 798.369 1215.33 813.874 1210.56C829.378 1205.78 728.224 1529.51 605.878 1515.77C485.844 1502.29 458.979 1170.93 473.321 1178.52C487.663 1186.1 202.615 1384.38 115.829 1294.09C22.5472 1197.04 250.391 899.553 255.168 915.058C259.946 930.562 -1.50802 850.64 0.00606256 749.21C1.67888 637.168 294.791 560.164 287.206 574.505C279.621 588.847 181.89 301.661 274.367 238.088C356.923 181.334 566.172 351.576 550.667 356.353C535.163 361.13 625.169 15.3694 753.395 27.4325C881.621 39.4956 905.562 395.976 891.22 388.391C876.878 380.806 1129.75 286.557 1193.39 365.015C1256.16 442.388 1114.15 667.357 1109.37 651.852C1104.6 636.347 1450.36 726.353 1438.29 854.579C1426.23 982.805 1069.75 1006.75 1077.33 992.404C1084.92 978.062 1163.68 1223.51 1087.54 1284.04V1284.04Z" fill="black"/>
<path d="M1183.71 1272.73C1109.77 1331.51 894.536 1204.02 910.04 1199.24C925.545 1194.47 824.391 1518.2 702.045 1504.46C582.011 1490.97 555.146 1159.62 569.488 1167.21C583.83 1174.79 298.781 1373.07 211.996 1282.78C118.714 1185.73 346.558 888.239 351.335 903.744C356.113 919.249 94.659 839.326 96.1731 737.896C97.8459 625.854 390.958 548.85 383.373 563.192C375.788 577.534 278.057 290.347 370.533 226.774C453.09 170.02 662.339 340.262 646.834 345.039C631.33 349.817 721.336 4.05592 849.561 16.119C977.788 28.1822 1001.73 384.663 987.387 377.078C973.045 369.492 1225.92 275.244 1289.56 353.701C1352.32 431.075 1210.32 656.043 1205.54 640.538C1200.76 625.034 1546.52 715.04 1534.46 843.265C1522.4 971.491 1165.92 995.433 1173.5 981.091C1181.09 966.749 1259.85 1212.19 1183.71 1272.73V1272.73Z" fill="#55B455" stroke="#33674A" stroke-width="31.6106" stroke-linejoin="bevel"/>
<path d="M1065.47 865.059C1114.36 865.059 1153.98 825.434 1153.98 776.554C1153.98 727.674 1114.36 688.049 1065.47 688.049C1016.59 688.049 976.969 727.674 976.969 776.554C976.969 825.434 1016.59 865.059 1065.47 865.059Z" fill="#C54444"/>
<path d="M667.707 1123.21C716.588 1123.21 756.212 1083.59 756.212 1034.71C756.212 985.828 716.588 946.203 667.707 946.203C618.827 946.203 579.202 985.828 579.202 1034.71C579.202 1083.59 618.827 1123.21 667.707 1123.21Z" fill="#C54444"/>
<path opacity="0.432836" d="M1100.87 772.724C1108.09 772.724 1113.95 759.041 1113.95 742.163C1113.95 725.284 1108.09 711.601 1100.87 711.601C1093.64 711.601 1087.78 725.284 1087.78 742.163C1087.78 759.041 1093.64 772.724 1100.87 772.724Z" fill="white"/>
<path opacity="0.432836" d="M700.866 1042.72C708.091 1042.72 713.947 1029.04 713.947 1012.16C713.947 995.284 708.091 981.601 700.866 981.601C693.641 981.601 687.784 995.284 687.784 1012.16C687.784 1029.04 693.641 1042.72 700.866 1042.72Z" fill="white"/>
</svg>
