<svg width="6370" height="1470" viewBox="0 0 6370 1470" fill="none" xmlns="http://www.w3.org/2000/svg">
<path d="M734.569 22.876C641.108 22.8761 548.562 41.2847 462.216 77.0507C375.869 112.817 297.412 165.24 231.325 231.327C165.238 297.414 112.817 375.87 77.0508 462.217C41.285 548.563 22.8768 641.109 22.877 734.57C22.8772 923.322 97.8588 1104.34 231.327 1237.81C364.795 1371.28 545.816 1446.26 734.569 1446.26C831.558 1446.23 927.517 1426.37 1016.55 1387.9C1105.59 1349.44 1185.82 1293.18 1252.33 1222.59H6037.64C6208.9 1222.59 6346.77 1084.71 6346.77 913.452V555.687C6346.77 384.427 6208.9 246.552 6037.64 246.552H1252.52C1185.99 175.933 1105.72 119.663 1016.65 81.1984C927.583 42.7336 831.589 22.8861 734.569 22.876V22.876ZM1409.15 507.919C1409.19 508.046 1409.23 508.173 1409.27 508.3C1409.23 508.173 1409.19 508.046 1409.15 507.919V507.919ZM1429.58 581.642C1429.64 581.94 1429.71 582.24 1429.78 582.539C1429.71 582.24 1429.64 581.94 1429.58 581.642V581.642ZM1442.02 657.413C1442.06 657.693 1442.09 657.974 1442.12 658.254C1442.09 657.974 1442.06 657.693 1442.02 657.413V657.413ZM1442.29 805.373C1441.86 809.469 1441.4 813.56 1440.9 817.648C1441.4 813.56 1441.86 809.469 1442.29 805.373Z" fill="#D38D5F"/>
</svg>
